<svg width="990" height="991" viewBox="0 0 990 991" fill="none" xmlns="http://www.w3.org/2000/svg">
<path d="M495 0.795044C221.715 0.795044 0 222.51 0 495.795C0 769.08 221.715 990.795 495 990.795C768.285 990.795 990 769.08 990 495.795C990 222.51 768.285 0.795044 495 0.795044ZM643.395 808.02H539.203C445.184 808.02 375.372 759.608 375.372 644.19V458.959H289.773V358.626C383.792 334.069 423.083 253.382 427.644 183.219H525.17V342.138H638.834V458.609H525.17V619.984C525.17 668.396 549.727 684.884 588.317 684.884H643.395V808.02Z" fill="white"/>
</svg>
