<?xml version="1.0" encoding="utf-8"?>
<!-- Generator: Adobe Illustrator 26.5.0, SVG Export Plug-In . SVG Version: 6.00 Build 0)  -->
<svg version="1.1" id="Capa_1" xmlns="http://www.w3.org/2000/svg" xmlns:xlink="http://www.w3.org/1999/xlink" x="0px" y="0px"
	 viewBox="0 0 768 454" style="enable-background:new 0 0 768 454;" xml:space="preserve">
<style type="text/css">
	.st0{fill:#D3D3D3;}
</style>
<path class="st0" d="M383.1,288.3c-33.2,40.8-57.4,85.2-96.4,118.2c-44.9,37.8-95.5,56.4-153.8,41.7
	c-54.2-13.6-76.9-53.3-66.7-107.7c15.7-82,39.9-162.2,58.8-243.6c0.9-3.8,3.4-7.5,3.2-11.1c-0.9-9.3,5-20.6-5.9-27
	c-10.8-6.1-18.6,2.9-25.6,8.4c-28.6,23.3-45.8,55.3-59.7,88.2c-5.9,13.4-10.8,14.5-20.9,9c-9.1-4.7-21.8-6.8-13.1-22.9
	C36.9,77.8,73.7,17.2,153,3c23.6-4.3,47.4-5,69,4.3c51.5,22.4,62.4,47.4,47.4,111.7c-17.7,76.8-37.9,153.1-57.6,229.3
	c-3.8,14.5-10.5,31.1,2.9,40.5c14.9,10.2,32.6,2.7,46.3-7.9c33.8-26.2,56-61.7,76.6-98.6c44.6-78.6,72.6-163.3,91.4-251.2
	c3.4-16.1,8.2-20.6,23.8-20.1c35.6,1.1,71,0.9,106.4,0.3C575,11.1,582,12,576.5,32.2c-23.3,85.6-44.6,171.7-66.2,257.9
	c-4.1,16.1-6.1,32.6-6.8,49.2c-1.1,22.9,7.5,41.9,29.1,53c24.2,12.5,46,2.7,64.9-11.3c22.2-16.3,41.3-36.4,55.6-60.5
	c26.3-45.7,54.5-90.8,64.4-143.2c6.8-36.1,6.4-59.4-36.5-56.8c-36.7,2.3-60.1-21.8-60.6-56.4c-0.6-31.1,27.9-60.8,60.6-62.8
	c51.5-3.2,88.6,35.5,86.8,97.2c-2,74.3-24.7,143.2-62.6,207.3c-32,54.4-67.6,104.7-128.8,131.2c-64.7,27.9-122,22.2-162.3-20.1
	c-20.9-22.2-31.1-49.2-31.8-79.8C383.1,320.9,383.1,304.6,383.1,288.3z"/>
</svg>
