<?xml version="1.0" encoding="UTF-8"?>
<svg id="Layer_1" data-name="Layer 1" xmlns="http://www.w3.org/2000/svg" viewBox="0 0 29.66 30.14">
  <defs>
    <style>
      .cls-1 {
        fill: #b8860b;
      }
    </style>
  </defs>
  <path class="cls-1" d="m14.83,0c-1,7.74-7.52,14.34-14.83,15.27,6.61.49,14.34,8.17,14.83,14.86.21-7.92,8.72-14.68,14.83-14.7-7.82-.46-14.78-8.89-14.83-15.44Z"/>
  <path class="cls-1" d="m19.29,2.12c-.14,1.11-1.08,2.05-2.12,2.19.95.07,2.05,1.17,2.12,2.13.03-1.13,1.25-2.1,2.12-2.1-1.12-.07-2.12-1.27-2.12-2.21Z"/>
  <path class="cls-1" d="m22.57,6.29c-.14,1.11-1.08,2.05-2.12,2.19.95.07,2.05,1.17,2.12,2.13.03-1.13,1.25-2.1,2.12-2.1-1.12-.07-2.12-1.27-2.12-2.21Z"/>
</svg>