<?xml version="1.0" encoding="utf-8"?>
<!-- Generator: Adobe Illustrator 27.2.0, SVG Export Plug-In . SVG Version: 6.00 Build 0)  -->
<svg version="1.1" id="Capa_1" xmlns="http://www.w3.org/2000/svg" xmlns:xlink="http://www.w3.org/1999/xlink" x="0px" y="0px"
	 viewBox="0 0 1000 1000" style="enable-background:new 0 0 1000 1000;" xml:space="preserve">
<style type="text/css">
	.st0{fill:#2F4F4F;}
	.st1{fill:#FFFFFF;}
</style>
<g id="Capa_1_00000168101893903455482850000015357386973831173560_">
</g>
<g id="Capa_2_00000084517365271139596690000002982719386093892532_">
	<g>
		<g>
			<polygon class="st0" points="0,313.7 686.1,1000 894.1,1000 0,106 			"/>
		</g>
		<g>
			<polygon class="st0" points="17,0 1000,983 1000,786.3 213.9,0 			"/>
		</g>
		<g>
			<polygon class="st0" points="0,937.7 62.5,1000 259.1,1000 0,740.7 			"/>
		</g>
		<g>
			<polygon class="st0" points="336.8,0 1000,663.3 1000,468 532.1,0 			"/>
		</g>
		<g>
			<polygon class="st0" points="0,618 382,1000 563.5,1000 0,436.7 			"/>
		</g>
		<g>
			<polygon class="st0" points="1000,0 985.6,0 1000,14.3 			"/>
		</g>
		<g>
			<polygon class="st0" points="863,0 655,0 1000,345 1000,137 			"/>
		</g>
		<polygon class="st1" points="0,436.7 563.5,1000 686.1,1000 0,313.7 		"/>
		<polygon class="st1" points="213.9,0 1000,786.3 1000,663.3 336.8,0 		"/>
		<polygon class="st1" points="0,0 0,106 894.1,1000 1000,1000 1000,983 17,0 		"/>
		<polygon class="st1" points="532.1,0 1000,468 1000,345 655,0 		"/>
		<polygon class="st1" points="1000,14.3 985.6,0 863,0 1000,137 		"/>
		<polygon class="st1" points="0,740.7 259.1,1000 382,1000 0,618 		"/>
		<polygon class="st1" points="0,1000 62.5,1000 0,937.7 		"/>
	</g>
</g>
</svg>
