<?xml version="1.0" encoding="utf-8"?>
<!-- Generator: Adobe Illustrator 27.2.0, SVG Export Plug-In . SVG Version: 6.00 Build 0)  -->
<svg version="1.1" xmlns="http://www.w3.org/2000/svg" xmlns:xlink="http://www.w3.org/1999/xlink" x="0px" y="0px"
	 viewBox="0 0 300 300" style="enable-background:new 0 0 300 300;" xml:space="preserve">
<style type="text/css">
	.st0{fill:#2F4F4F;}
	.st1{fill:#FFFFFF;}
</style>
<g id="Capa_1">
</g>
<g id="Capa_2">
	<g>
		<g>
			<polygon class="st0" points="0,94.13 205.87,300 268.25,300 0,31.75 			"/>
		</g>
		<g>
			<polygon class="st0" points="5.1,0 300,294.9 300,235.86 64.14,0 			"/>
		</g>
		<g>
			<polygon class="st0" points="0,281.29 18.71,300 77.76,300 0,222.24 			"/>
		</g>
		<g>
			<polygon class="st0" points="101,0 300,199 300,140.37 159.63,0 			"/>
		</g>
		<g>
			<polygon class="st0" points="0,185.39 114.61,300 169.02,300 0,130.98 			"/>
		</g>
		<g>
			<polygon class="st0" points="300,0 295.71,0 300,4.29 			"/>
		</g>
		<g>
			<polygon class="st0" points="258.86,0 196.49,0 300,103.51 300,41.14 			"/>
		</g>
		<polygon class="st1" points="0,130.98 169.02,300 205.87,300 0,94.13 		"/>
		<polygon class="st1" points="64.14,0 300,235.86 300,199 101,0 		"/>
		<polygon class="st1" points="0,0 0,31.75 268.25,300 300,300 300,294.9 5.1,0 		"/>
		<polygon class="st1" points="159.63,0 300,140.37 300,103.51 196.49,0 		"/>
		<polygon class="st1" points="300,4.29 295.71,0 258.86,0 300,41.14 		"/>
		<polygon class="st1" points="0,222.24 77.76,300 114.61,300 0,185.39 		"/>
		<polygon class="st1" points="0,300 18.71,300 0,281.29 		"/>
	</g>
</g>
</svg>
