<?xml version="1.0" encoding="utf-8"?>
<!-- Generator: Adobe Illustrator 27.2.0, SVG Export Plug-In . SVG Version: 6.00 Build 0)  -->
<svg version="1.1" id="Redes" xmlns="http://www.w3.org/2000/svg" xmlns:xlink="http://www.w3.org/1999/xlink" x="0px" y="0px"
	 viewBox="0 0 30 30" style="enable-background:new 0 0 30 30;" xml:space="preserve">
<style type="text/css">
	.st0{display:none;}
	.st1{display:inline;fill:#851A58;}
	.st2{fill:#851A58;}
</style>
<g id="Twitter" class="st0">
	<path class="st1" d="M14.94,0.67c-7.82,0-14.16,6.34-14.16,14.16S7.12,29,14.94,29S29.1,22.66,29.1,14.84S22.76,0.67,14.94,0.67z
		 M22.77,11.81c0.01,0.16,0.01,0.32,0.01,0.49c0,4.97-3.78,10.7-10.7,10.7c-2.12,0-4.1-0.62-5.77-1.69c0.29,0.03,0.59,0.05,0.9,0.05
		c1.76,0,3.38-0.6,4.67-1.61c-1.65-0.03-3.03-1.12-3.51-2.61c0.23,0.04,0.46,0.07,0.71,0.07c0.34,0,0.68-0.05,0.99-0.13
		c-1.72-0.34-3.02-1.87-3.02-3.69c0-0.02,0-0.03,0-0.05c0.51,0.28,1.09,0.45,1.7,0.47c-1.01-0.67-1.67-1.83-1.67-3.13
		c0-0.69,0.19-1.33,0.51-1.89c1.85,2.28,4.63,3.77,7.75,3.93c-0.06-0.28-0.1-0.56-0.1-0.86c0-2.08,1.68-3.76,3.76-3.76
		c1.08,0,2.06,0.46,2.75,1.19c0.86-0.17,1.66-0.48,2.39-0.91c-0.28,0.88-0.88,1.61-1.65,2.08c0.76-0.09,1.49-0.29,2.16-0.59
		C24.14,10.61,23.5,11.28,22.77,11.81z"/>
</g>
<g id="Tumblr">
	<path class="st2" d="M14.89,0.72c-7.79,0-14.11,6.32-14.11,14.11c0,7.79,6.32,14.11,14.11,14.11c7.79,0,14.11-6.32,14.11-14.11
		C29,7.04,22.68,0.72,14.89,0.72z M19.12,23.73h-2.97c-2.68,0-4.67-1.38-4.67-4.67v-5.28H9.04v-2.86c2.68-0.7,3.8-3,3.93-5h2.78
		v4.53h3.24v3.32h-3.24v4.6c0,1.38,0.7,1.85,1.8,1.85h1.57V23.73z"/>
</g>
<g id="Instagram" class="st0">
	<path class="st1" d="M14.94,11.84c-1.64,0-2.97,1.33-2.97,2.97s1.33,2.97,2.97,2.97c1.64,0,2.97-1.33,2.97-2.97
		S16.58,11.84,14.94,11.84z"/>
	<path class="st1" d="M21.89,9.55c-0.16-0.42-0.36-0.71-0.67-1.03s-0.61-0.51-1.03-0.67c-0.31-0.12-0.79-0.27-1.66-0.31
		c-0.94-0.04-1.22-0.05-3.6-0.05s-2.66,0.01-3.6,0.05c-0.87,0.04-1.34,0.18-1.66,0.31C9.26,8.02,8.97,8.21,8.66,8.52
		S8.15,9.13,7.99,9.55c-0.12,0.31-0.27,0.79-0.31,1.66c-0.04,0.94-0.05,1.22-0.05,3.6s0.01,2.66,0.05,3.6
		c0.04,0.87,0.18,1.34,0.31,1.66c0.16,0.42,0.36,0.71,0.67,1.03c0.31,0.31,0.61,0.51,1.03,0.67c0.31,0.12,0.79,0.27,1.66,0.31
		c0.94,0.04,1.22,0.05,3.6,0.05s2.66-0.01,3.6-0.05c0.87-0.04,1.34-0.18,1.66-0.31c0.42-0.16,0.71-0.36,1.03-0.67
		s0.51-0.61,0.67-1.03c0.12-0.31,0.27-0.79,0.31-1.66c0.04-0.94,0.05-1.22,0.05-3.6s-0.01-2.66-0.05-3.6
		C22.16,10.34,22.01,9.86,21.89,9.55z M14.94,19.39c-2.53,0-4.58-2.05-4.58-4.58c0-2.53,2.05-4.58,4.58-4.58
		c2.53,0,4.58,2.05,4.58,4.58C19.52,17.34,17.47,19.39,14.94,19.39z M19.7,11.12c-0.59,0-1.07-0.48-1.07-1.07
		c0-0.59,0.48-1.07,1.07-1.07c0.59,0,1.07,0.48,1.07,1.07C20.77,10.64,20.29,11.12,19.7,11.12z"/>
	<path class="st1" d="M14.94,0.64c-7.82,0-14.16,6.34-14.16,14.16s6.34,14.16,14.16,14.16S29.1,22.63,29.1,14.81
		S22.76,0.64,14.94,0.64z M23.8,18.49c-0.04,0.95-0.19,1.6-0.41,2.16c-0.23,0.59-0.53,1.08-1.03,1.58s-0.99,0.8-1.58,1.03
		c-0.57,0.22-1.22,0.37-2.16,0.41c-0.95,0.04-1.25,0.05-3.68,0.05s-2.73-0.01-3.68-0.05c-0.95-0.04-1.6-0.19-2.16-0.41
		c-0.59-0.23-1.08-0.53-1.58-1.03s-0.8-0.99-1.03-1.58c-0.22-0.57-0.37-1.22-0.41-2.16c-0.04-0.95-0.05-1.25-0.05-3.68
		s0.01-2.73,0.05-3.68c0.04-0.95,0.19-1.6,0.41-2.16c0.23-0.59,0.53-1.08,1.03-1.58s0.99-0.8,1.58-1.03
		c0.57-0.22,1.22-0.37,2.16-0.41c0.95-0.04,1.25-0.05,3.68-0.05s2.73,0.01,3.68,0.05c0.95,0.04,1.6,0.19,2.16,0.41
		c0.59,0.23,1.08,0.53,1.58,1.03s0.8,0.99,1.03,1.58c0.22,0.57,0.37,1.22,0.41,2.16c0.04,0.95,0.05,1.25,0.05,3.68
		S23.85,17.53,23.8,18.49z"/>
</g>
</svg>
