<svg width="990" height="990" viewBox="0 0 990 990" fill="none" xmlns="http://www.w3.org/2000/svg">
<path d="M495 391.524C437.669 391.524 391.176 438.018 391.176 495.349C391.176 552.679 437.669 599.173 495 599.173C552.33 599.173 598.824 552.679 598.824 495.349C598.824 438.018 552.33 391.524 495 391.524Z" fill="white"/>
<path d="M737.957 311.472C732.363 296.789 725.372 286.652 714.535 275.465C703.698 264.279 693.211 257.637 678.529 252.044C667.692 247.849 650.912 242.605 620.499 241.207C587.639 239.808 577.851 239.459 494.652 239.459C411.452 239.459 401.664 239.808 368.804 241.207C338.391 242.605 321.961 247.499 310.774 252.044C296.442 257.986 286.304 264.628 275.467 275.465C264.63 286.302 257.639 296.789 252.046 311.472C247.851 322.308 242.607 339.088 241.209 369.501C239.811 402.361 239.461 412.15 239.461 495.349C239.461 578.548 239.811 588.336 241.209 621.196C242.607 651.609 247.501 668.039 252.046 679.226C257.639 693.908 264.63 704.046 275.467 715.232C286.304 726.069 296.791 733.061 311.474 738.654C322.31 742.849 339.09 748.092 369.503 749.491C402.363 750.889 412.152 751.238 495.351 751.238C578.55 751.238 588.338 750.889 621.198 749.491C651.611 748.092 668.041 743.198 679.228 738.654C693.91 733.061 704.048 726.069 715.234 715.232C726.421 704.395 733.063 693.908 738.656 679.226C742.851 668.389 748.094 651.609 749.493 621.196C750.891 588.336 751.241 578.548 751.241 495.349C751.241 412.15 750.891 402.361 749.493 369.501C747.395 339.088 742.152 322.308 737.957 311.472ZM495.001 655.455C406.558 655.455 334.895 583.792 334.895 495.349C334.895 406.906 406.558 335.243 495.001 335.243C583.444 335.243 655.107 406.906 655.107 495.349C655.107 583.792 583.444 655.455 495.001 655.455ZM661.4 366.355C640.775 366.355 623.995 349.575 623.995 328.95C623.995 308.325 640.775 291.546 661.4 291.546C682.025 291.546 698.804 308.325 698.804 328.95C698.804 349.575 682.025 366.355 661.4 366.355Z" fill="white"/>
<path d="M495 0C221.631 0 0 221.631 0 495C0 768.369 221.631 990 495 990C768.369 990 990 768.718 990 495.35C990 221.981 768.369 0 495 0ZM804.725 623.994C803.326 657.203 798.083 679.926 790.392 699.502C782.352 720.127 771.864 737.256 754.386 754.735C736.907 772.214 719.778 782.701 699.153 790.742C679.227 798.432 656.504 803.676 623.644 805.074C590.434 806.472 579.947 806.822 495 806.822C410.053 806.822 399.566 806.472 366.356 805.074C333.146 803.676 310.424 798.432 290.847 790.742C270.222 782.701 253.093 772.214 235.614 754.735C218.136 737.256 207.648 720.127 199.608 699.502C191.917 679.576 186.674 656.854 185.275 623.994C183.877 590.784 183.528 580.297 183.528 495.35C183.528 410.403 183.877 399.915 185.275 366.705C186.674 333.496 191.917 310.773 199.608 291.197C207.648 270.572 218.136 253.443 235.614 235.964C253.093 218.485 270.222 207.998 290.847 199.958C310.773 192.267 333.496 187.023 366.356 185.625C399.566 184.227 410.053 183.877 495 183.877C579.947 183.877 590.434 184.227 623.644 185.625C656.854 187.023 679.576 192.267 699.153 199.958C719.778 207.998 736.907 218.485 754.386 235.964C771.864 253.443 782.352 270.572 790.392 291.197C798.083 311.123 803.326 333.845 804.725 366.705C806.123 399.915 806.472 410.403 806.472 495.35C806.472 580.297 806.472 590.434 804.725 623.994Z" fill="white"/>
</svg>
